<svg xmlns="http://www.w3.org/2000/svg" viewBox="0 0 64 56" shape-rendering="crispEdges">
  <rect x="20" y="4" width="6" height="10" fill="#f28a42"/>
  <rect x="38" y="4" width="6" height="10" fill="#f28a42"/>
  <rect x="23" y="1" width="3" height="6" fill="#ff9b63"/>
  <rect x="38" y="1" width="3" height="6" fill="#ff9b63"/>
  <rect x="17" y="13" width="30" height="18" fill="#f28a42"/>
  <rect x="13" y="19" width="38" height="15" fill="#f28a42"/>
  <rect x="22" y="19" width="20" height="13" fill="#ffe8b8"/>
  <rect x="40" y="20" width="9" height="14" fill="#a74624" opacity=".42"/>
  <rect x="24" y="23" width="4" height="6" fill="#171018"/>
  <rect x="36" y="23" width="4" height="6" fill="#171018"/>
  <rect x="25" y="24" width="1.5" height="2" fill="#85e6ff"/>
  <rect x="37" y="24" width="1.5" height="2" fill="#85e6ff"/>
  <rect x="30" y="31" width="5" height="2" fill="#d23f57"/>
  <rect x="20" y="34" width="24" height="6" fill="#f28a42"/>
  <rect x="8" y="30" width="6" height="6" fill="#c8bfff" opacity=".7"/>
  <rect x="50" y="30" width="6" height="6" fill="#c8bfff" opacity=".7"/>
  <rect x="18" y="41" width="8" height="3" fill="#a74624"/>
  <rect x="38" y="41" width="8" height="3" fill="#a74624"/>
  <rect x="8" y="50" width="48" height="3" fill="#84a75c"/>
</svg>
